<svg xmlns="http://www.w3.org/2000/svg" viewBox="0 0 44.585 35.208">
  <defs>
    <style>
      .cls-1 {
        fill: #006095;
      }

      .cls-2 {
        fill: #fff;
      }

      .cls-3 {
        fill: #1a1918;
      }
    </style>
  </defs>
  <g id="Group_8471" data-name="Group 8471" transform="translate(-20.347 16)">
    <g id="Group_8472" data-name="Group 8472" transform="translate(30.33 -16)">
      <path id="Path_1968" data-name="Path 1968" class="cls-1" d="M13.407,18.1c4.949.027,9.477-4.038,9.477-8.974A9.243,9.243,0,0,0,13.407,0H9.137A8.934,8.934,0,0,0,0,9.124,9.089,9.089,0,0,0,9.137,18.1h4.27"/>
      <path id="Path_1969" data-name="Path 1969" class="cls-2" d="M16.571,18.689v-9.8a5.249,5.249,0,0,1,0,9.8M9.432,13.781a5.254,5.254,0,0,1,3.372-4.9v9.8a5.259,5.259,0,0,1-3.372-4.909M14.694,5.5a8.281,8.281,0,1,0,8.294,8.281A8.29,8.29,0,0,0,14.694,5.5" transform="translate(-5.53 -4.752)"/>
    </g>
    <path id="Path_1970" data-name="Path 1970" class="cls-3" d="M184.084,17.886c0-.857-.449-.8-.87-.8v-.245c.367.014.748.014,1.129.014s.938-.014,1.645-.014c2.475,0,3.807,1.645,3.807,3.331,0,.938-.557,3.318-3.93,3.318-.49,0-.938-.014-1.387-.014s-.843.014-1.278.014v-.245c.571-.054.843-.082.87-.721V17.886Zm.938,4.474c0,.734.53.816.993.816a2.652,2.652,0,0,0,2.733-2.964,2.855,2.855,0,0,0-2.978-3.059,7.012,7.012,0,0,0-.748.041Zm5.113.87h.177c.272,0,.462,0,.462-.313V20.334c0-.422-.15-.476-.489-.666v-.15c.449-.136.979-.313,1.02-.34a.329.329,0,0,1,.177-.054c.041,0,.068.054.068.136v3.658c0,.313.2.313.476.313h.163v.245c-.326,0-.653-.014-1.006-.014s-.693.014-1.033.014V23.23Zm1.02-5.561a.469.469,0,0,1,0-.938.467.467,0,0,1,.462.462A.479.479,0,0,1,191.154,17.669Zm1.917,2.719c0-.354-.109-.449-.557-.625v-.177a13.364,13.364,0,0,0,1.265-.462c.027,0,.054.014.054.1v.625a2.765,2.765,0,0,1,1.645-.721c.816,0,1.1.585,1.1,1.333v2.461c0,.313.2.313.476.313h.177v.245c-.34,0-.666-.014-1.006-.014s-.693.014-1.033.014V23.23h.177c.272,0,.462,0,.462-.313V20.456c0-.544-.326-.8-.87-.8a2.463,2.463,0,0,0-1.1.462v2.815c0,.313.218.313.476.313h.177v.245c-.34,0-.666-.014-1.006-.014s-.693.014-1.033.014v-.245h.177c.272,0,.462,0,.462-.313V20.388Zm4.881.462a3.4,3.4,0,0,0,0,.557,1.593,1.593,0,0,0,1.4,1.645,1.826,1.826,0,0,0,1.292-.639l.136.136a2.215,2.215,0,0,1-1.768,1.074,1.912,1.912,0,0,1-1.822-2.08,2.13,2.13,0,0,1,1.931-2.42,1.523,1.523,0,0,1,1.618,1.5.834.834,0,0,1-.014.177l-.082.054Zm1.686-.3c.245,0,.272-.122.272-.245a.8.8,0,0,0-.829-.87c-.585,0-.979.422-1.1,1.115Zm1.305,2.679h.258c.272,0,.462,0,.462-.313V20.238c0-.3-.354-.354-.489-.435v-.136c.693-.3,1.074-.544,1.169-.544.054,0,.082.027.082.122V20.1h.014c.231-.367.639-.979,1.224-.979a.517.517,0,0,1,.544.5.462.462,0,0,1-.449.49c-.3,0-.3-.231-.625-.231a.8.8,0,0,0-.693.789V22.9c0,.313.19.313.462.313h.53v.245c-.53-.014-.925-.014-1.333-.014s-.789.014-1.129.014V23.23Zm3.671-1.074a1.248,1.248,0,0,0,1.2,1.156.678.678,0,0,0,.775-.68c0-1.129-2.08-.761-2.08-2.3a1.32,1.32,0,0,1,1.482-1.224,2.509,2.509,0,0,1,1.088.272l.068.965h-.218a.978.978,0,0,0-1.033-.938.673.673,0,0,0-.748.625c0,1.115,2.216.775,2.216,2.271,0,.625-.5,1.292-1.645,1.292a2.565,2.565,0,0,1-1.169-.326l-.109-1.088Zm11.354-3.6h-.231a1.814,1.814,0,0,0-2.04-1.564,2.716,2.716,0,0,0-2.692,3.019,3.108,3.108,0,0,0,2.842,3.3,1.947,1.947,0,0,0,1.917-1.645l.218.054-.231,1.387a5.4,5.4,0,0,1-2.108.5A3.394,3.394,0,0,1,210,20.034a3.5,3.5,0,0,1,3.617-3.345,6.8,6.8,0,0,1,2.244.5Zm.34,4.677h.177c.272,0,.462,0,.462-.313v-5.3c0-.625-.15-.639-.5-.748v-.15a6.68,6.68,0,0,0,.979-.408,1.673,1.673,0,0,1,.2-.109c.054,0,.082.054.082.136v6.581c0,.313.2.313.476.313h.163v.245c-.326,0-.653-.014-1.006-.014s-.68.014-1.033.014Zm6.119-.272c0,.177.109.177.272.177.109,0,.258-.014.381-.014v.2a8.586,8.586,0,0,0-1.373.3l-.054-.027v-.775a2.587,2.587,0,0,1-1.686.8A1.02,1.02,0,0,1,218.92,22.5V20.048c0-.245-.041-.49-.571-.53v-.177c.34-.014,1.1-.068,1.224-.068s.109.068.109.272v2.461c0,.286,0,1.1.829,1.1a2.114,2.114,0,0,0,1.156-.585V19.966c0-.19-.462-.3-.8-.394V19.4c.857-.054,1.387-.136,1.482-.136s.082.068.082.177Zm1.9-3.141a2.391,2.391,0,0,1,1.414-.68,1.855,1.855,0,0,1,1.768,2,2.4,2.4,0,0,1-2.284,2.488,2.9,2.9,0,0,1-1.319-.326l-.286.218-.2-.109a11.619,11.619,0,0,0,.136-1.7V17.614c0-.625-.15-.639-.5-.748v-.15a6.68,6.68,0,0,0,.979-.408,1.67,1.67,0,0,1,.2-.109c.054,0,.082.054.082.136v3.481Zm0,2.584a1.013,1.013,0,0,0,.979.965c1.02,0,1.455-1.006,1.455-1.849a1.814,1.814,0,0,0-1.523-1.89,1.494,1.494,0,0,0-.911.449ZM183.2,29.009h.068c.19,0,.381-.027.381-.3V26c0-.272-.19-.3-.381-.3H183.2v-.15c.2,0,.517.014.775.014s.571-.014.816-.014v.15h-.068c-.19,0-.381.027-.381.3V28.71c0,.272.2.3.381.3h.068v.15c-.245,0-.558-.014-.816-.014s-.557.014-.761.014v-.15Zm5.14-.87h0l.014-1.958a.432.432,0,0,0-.449-.49H187.8v-.136c.245,0,.49.027.721.027s.422-.027.639-.027v.15h-.082c-.218,0-.462.041-.462.653V28.71a3.123,3.123,0,0,0,.027.517h-.19l-2.665-2.978v2.135c0,.449.082.612.49.612h.082v.15c-.218,0-.449-.014-.666-.014s-.476.014-.707.014V29h.068c.354,0,.462-.245.462-.653V26.167a.469.469,0,0,0-.476-.462h-.068v-.15c.19,0,.394.027.6.027.15,0,.313-.027.462-.027Zm1.591-2.325c-.394,0-.408.1-.476.476h-.163c.014-.15.041-.286.068-.435a2.34,2.34,0,0,0,.027-.435h.122c.041.15.177.15.313.15H192.5c.136,0,.272,0,.286-.163l.122.027c-.014.136-.041.286-.054.422s-.014.286-.014.422l-.15.054c-.014-.19-.041-.5-.381-.5h-.857v2.76c0,.394.177.449.435.449h.1v.15c-.2,0-.571-.014-.843-.014-.313,0-.68.014-.884.014v-.15h.1c.286,0,.435-.027.435-.435V25.813Zm3.141,3.2h.068c.19,0,.381-.027.381-.3V26c0-.272-.2-.3-.381-.3h-.068v-.15c.313,0,.857.014,1.292.014s.979-.014,1.333-.014a7.633,7.633,0,0,0,.014.789l-.15.041c-.027-.34-.082-.612-.625-.612h-.748v1.36h.612c.313,0,.381-.177.408-.462h.15c-.014.2-.014.408-.014.612s0,.394.014.585l-.15.027c-.027-.313-.041-.517-.408-.517h-.612v1.21c0,.34.3.34.625.34.625,0,.9-.041,1.047-.625l.15.041a8.139,8.139,0,0,0-.177.829c-.326,0-.925-.014-1.4-.014s-1.088.014-1.387.014v-.163Zm3.644-2.91c0-.381-.2-.394-.367-.394h-.1v-.15c.163,0,.49.027.8.027s.558-.027.829-.027c.653,0,1.237.177,1.237.911a.984.984,0,0,1-.721.911l.884,1.319a.575.575,0,0,0,.5.313v.15c-.177,0-.34-.014-.5-.014s-.326.014-.49.014a14.037,14.037,0,0,1-1.074-1.672h-.34V28.6c0,.394.19.408.422.408h.1v.15c-.3,0-.6-.014-.9-.014-.245,0-.49.014-.748.014v-.15h.1c.19,0,.367-.082.367-.272V26.1Zm.666,1.2h.258c.517,0,.8-.19.8-.8a.714.714,0,0,0-.761-.761,1.488,1.488,0,0,0-.3.027Zm5.942.843h0l.014-1.958a.432.432,0,0,0-.449-.49h-.109v-.136c.245,0,.476.027.721.027.218,0,.422-.027.639-.027v.15h-.082c-.218,0-.462.041-.462.653V28.71a3.123,3.123,0,0,0,.027.517h-.19l-2.665-2.978v2.135c0,.449.082.612.489.612h.082v.15c-.218,0-.449-.014-.666-.014s-.476.014-.707.014V29h.068c.354,0,.462-.245.462-.653V26.167a.469.469,0,0,0-.476-.462h-.068v-.15c.19,0,.394.027.6.027.15,0,.3-.027.462-.027Zm1.645.286a1.84,1.84,0,0,0-.109.408c0,.15.218.177.394.177h.054v.15c-.2-.014-.422-.014-.625-.014s-.367.014-.558.014v-.15h.027a.473.473,0,0,0,.449-.34l.829-2.38a3.8,3.8,0,0,0,.19-.639,4.021,4.021,0,0,0,.476-.218c.014,0,.027-.014.041-.014a.05.05,0,0,1,.041.014c.014.041.027.082.041.136l.952,2.706c.068.177.122.367.19.53a.329.329,0,0,0,.34.2h.027v.15c-.231-.014-.462-.014-.721-.014s-.517.014-.775.014v-.15h.054c.122,0,.326-.014.326-.15a1.229,1.229,0,0,0-.109-.367l-.2-.6h-1.183Zm.761-2.3h0l-.49,1.469h.965Zm2.23-.313c-.394,0-.408.1-.49.476h-.15c.014-.15.041-.286.068-.435a2.337,2.337,0,0,0,.027-.435h.122c.041.15.177.15.313.15h2.679c.136,0,.272,0,.286-.163l.122.027c-.014.136-.041.286-.054.422s-.014.286-.014.422l-.15.054c-.014-.19-.041-.5-.381-.5h-.857v2.76c0,.394.177.449.435.449h.1v.15c-.2,0-.571-.014-.843-.014-.313,0-.68.014-.87.014v-.15h.1c.286,0,.435-.027.435-.435V25.813Zm3.168,3.2h.068c.19,0,.381-.027.381-.3V26c0-.272-.19-.3-.381-.3h-.068v-.15c.2,0,.517.014.761.014s.571-.014.816-.014v.15h-.068c-.19,0-.381.027-.381.3V28.71c0,.272.2.3.381.3h.068v.15c-.245,0-.558-.014-.816-.014s-.557.014-.761.014Zm3.644-3.535a1.816,1.816,0,0,1,1.985,1.781A1.9,1.9,0,0,1,214.8,29.24a1.836,1.836,0,0,1-1.944-1.863A1.887,1.887,0,0,1,214.773,25.473Zm.082,3.535c1.006,0,1.183-.884,1.183-1.645s-.408-1.672-1.265-1.672c-.911,0-1.183.8-1.183,1.5C213.59,28.125,214.012,29.009,214.855,29.009Zm5.4-.87h0l.014-1.958a.432.432,0,0,0-.449-.49h-.109v-.136c.245,0,.476.027.721.027.218,0,.422-.027.639-.027v.15h-.082c-.218,0-.462.041-.462.653V28.71a3.123,3.123,0,0,0,.027.517h-.19l-2.679-2.978v2.135c0,.449.082.612.489.612h.1v.15c-.218,0-.449-.014-.666-.014s-.476.014-.707.014V29h.068c.354,0,.462-.245.462-.653V26.167a.461.461,0,0,0-.476-.462h-.054v-.15c.2,0,.394.027.6.027.15,0,.3-.027.462-.027Zm1.645.286a1.84,1.84,0,0,0-.109.408c0,.15.218.177.394.177h.054v.15c-.2-.014-.422-.014-.625-.014s-.367.014-.557.014v-.15h.027a.461.461,0,0,0,.449-.34l.829-2.38a3.8,3.8,0,0,0,.19-.639,4.022,4.022,0,0,0,.476-.218c.014,0,.027-.014.041-.014a.05.05,0,0,1,.041.014c.014.041.027.082.041.136l.952,2.706c.068.177.122.367.19.53a.329.329,0,0,0,.34.2h.027v.15c-.231-.014-.462-.014-.721-.014s-.517.014-.775.014v-.15h.054c.122,0,.326-.014.326-.15a1.229,1.229,0,0,0-.109-.367l-.2-.6h-1.183Zm.761-2.3h0l-.489,1.469h.965Zm3.318,2.529c0,.2.15.272.313.286a3.811,3.811,0,0,0,.68-.014.746.746,0,0,0,.5-.286,1.089,1.089,0,0,0,.163-.367h.15c-.054.3-.136.585-.19.884-.449,0-.911-.014-1.373-.014s-.911.014-1.373.014v-.15h.068c.19,0,.394-.027.394-.34V26c0-.272-.2-.3-.394-.3h-.068v-.15c.272,0,.544.027.816.027s.53-.027.789-.027v.15h-.136c-.19,0-.354,0-.354.286v2.665Z" transform="translate(-162.853 -10.032)"/>
  </g>
</svg>
