<svg id="Group_8467" data-name="Group 8467" xmlns="http://www.w3.org/2000/svg" viewBox="0 0 45 17.244">
  <defs>
    <style>
      .cls-1 {
        fill: #ffcb05;
      }

      .cls-2 {
        fill: #00a4e0;
      }

      .cls-3 {
        fill: #ef4123;
      }
    </style>
  </defs>
  <g id="Group_8465" data-name="Group 8465">
    <g id="Group_8464" data-name="Group 8464">
      <path id="Path_1958" data-name="Path 1958" class="cls-1" d="M262.724,3.81a5.082,5.082,0,0,1,6.58,3.8l3.479-.709A8.626,8.626,0,0,0,261.6.444Z" transform="translate(-255.709)"/>
      <path id="Path_1959" data-name="Path 1959" class="cls-2" d="M2.909,109.116l2.353-2.659a5.072,5.072,0,0,1,0-7.6L2.909,96.2a8.623,8.623,0,0,0,0,12.916" transform="translate(0 -94.034)"/>
      <path id="Path_1960" data-name="Path 1960" class="cls-3" d="M269.206,428.1a5.071,5.071,0,0,1-4.97,4.056,5.006,5.006,0,0,1-1.61-.261l-1.126,3.369a8.637,8.637,0,0,0,11.185-6.449Z" transform="translate(-255.612 -418.46)"/>
    </g>
  </g>
  <path id="Path_1961" data-name="Path 1961" d="M858.512,209.136a6.141,6.141,0,0,1-.363-.7,5.287,5.287,0,0,1,2.639-6.877,5.3,5.3,0,0,1,4.864.354,5.193,5.193,0,0,1,2.171,2.621c.065.155.124.32.182.462Zm3.171-5.521a2.62,2.62,0,0,0-1.59,2.781l4.774-2.056A2.537,2.537,0,0,0,861.682,203.615Zm3.781,4.472a0,0,0,0,0,0,0l-.1-.068a2.809,2.809,0,0,1-1.29,1.081,2.508,2.508,0,0,1-2.767-.279l-.065.1a0,0,0,0,0,0,0l-1.211,1.813a5.25,5.25,0,0,0,.962.527,5.252,5.252,0,0,0,6.319-1.941Z" transform="translate(-838.396 -196.601)"/>
  <path id="Path_1962" data-name="Path 1962" d="M1365.136,101.9v10.075l1.567.635-.889,2.076-1.729-.721a1.956,1.956,0,0,1-.851-.716A2.248,2.248,0,0,1,1362.9,112V101.9Z" transform="translate(-1332.21 -99.605)"/>
  <g id="Group_8466" data-name="Group 8466" transform="translate(34.579 4.54)">
    <path id="Path_1963" data-name="Path 1963" d="M1538,264.143a2.848,2.848,0,0,1,.979-2.15l-1.608-1.792a5.263,5.263,0,0,0,0,7.881l1.606-1.792A2.847,2.847,0,0,1,1538,264.143Z" transform="translate(-1535.6 -258.88)"/>
    <path id="Path_1964" data-name="Path 1964" d="M1696.573,463.377a2.868,2.868,0,0,1-.905-.149l-.768,2.283a5.269,5.269,0,0,0,6.832-3.929l-2.36-.482A2.854,2.854,0,0,1,1696.573,463.377Z" transform="translate(-1691.313 -455.257)"/>
    <path id="Path_1965" data-name="Path 1965" d="M1697.069,201.6a5.308,5.308,0,0,0-1.669.268l.761,2.283a2.856,2.856,0,0,1,3.7,2.144l2.36-.477A5.266,5.266,0,0,0,1697.069,201.6Z" transform="translate(-1691.802 -201.6)"/>
  </g>
</svg>
