<svg xmlns="http://www.w3.org/2000/svg" viewBox="0 0 45 19.323">
  <defs>
    <style>
      .cls-1 {
        fill: #c1272d;
        fill-rule: evenodd;
      }

      .cls-2 {
        fill: #fff;
      }
    </style>
  </defs>
  <g id="Group_8469" data-name="Group 8469" transform="translate(-5591 -14038)">
    <g id="Group_8468" data-name="Group 8468" transform="translate(5591 14038)">
      <path id="Path_1966" data-name="Path 1966" class="cls-1" d="M0,19.323H38.937A2.973,2.973,0,0,0,41.7,17L45,0H6.063A2.973,2.973,0,0,0,3.3,2.32l-3.3,17Z"/>
      <path id="Path_1967" data-name="Path 1967" class="cls-2" d="M12.7,26.292c.264-.949.5-2,.738-3.163.237-1.186.448-2.4.633-3.717a1.891,1.891,0,0,0,.343.026h.369c.079,0,.185-.026.343-.026a13.118,13.118,0,0,0-.448,1.872l-.026.105-.185.975a5.8,5.8,0,0,1,.606.026c.58.026.949.026,1.134.026.369,0,1,0,1.845-.026h.185l.237-1.107c.079-.422.132-.764.185-1.028.026-.264.079-.527.079-.791a1.513,1.513,0,0,0,.316.026h.4c.079,0,.185-.026.343-.026-.343,1.318-.633,2.583-.87,3.77s-.4,2.214-.5,3.111a1.845,1.845,0,0,1-.343-.053h-.369c-.079,0-.211.026-.343.026.132-.475.237-.87.316-1.239s.158-.633.185-.87l.264-1.318h-3.77L14.124,24c-.053.343-.132.685-.185,1.081-.053.369-.132.791-.185,1.239a1.513,1.513,0,0,0-.316-.026h-.422a.621.621,0,0,0-.316,0Zm8.014-6.59a.571.571,0,0,1,.132-.369.5.5,0,0,1,.343-.132.455.455,0,0,1,.343.132.522.522,0,0,1,.132.369.5.5,0,0,1-.132.343.437.437,0,0,1-.343.132.452.452,0,0,1-.475-.475Zm-1.134,6.59c.264-1.054.475-1.977.633-2.821a11.435,11.435,0,0,0,.237-2,.989.989,0,0,0,.264.026h.5c.079,0,.185-.026.264-.026a25.015,25.015,0,0,0-.606,2.663,14.94,14.94,0,0,0-.264,2.162,1.891,1.891,0,0,0-.343-.026H19.9a1.8,1.8,0,0,0-.316.026Zm4.35-.448a1.447,1.447,0,0,0,1.239-.738,3.2,3.2,0,0,0,.5-1.872,1.617,1.617,0,0,0-.29-1,.952.952,0,0,0-.791-.369,1.431,1.431,0,0,0-1.265.764,3.254,3.254,0,0,0-.5,1.872,1.646,1.646,0,0,0,.29,1.028,1.109,1.109,0,0,0,.817.316Zm-3.005,3.19c.29-1.054.58-2.214.844-3.506s.5-2.636.712-4.06c.079,0,.158.026.237.026h.369a.989.989,0,0,0,.264-.026l-.185.712a2.54,2.54,0,0,1,.791-.633,2.039,2.039,0,0,1,.9-.211,1.583,1.583,0,0,1,1.265.554,2.16,2.16,0,0,1,.475,1.476,3.236,3.236,0,0,1-.738,2.188,2.386,2.386,0,0,1-1.872.87,1.362,1.362,0,0,1-.844-.29,1.44,1.44,0,0,1-.527-.764L22.4,26.5a2.35,2.35,0,0,1-.053.29c-.185.923-.316,1.661-.422,2.267a2.284,2.284,0,0,1-.264-.053.932.932,0,0,1-.158-.026.813.813,0,0,0-.237.026,1.393,1.393,0,0,0-.343.026Zm6.907-5.615H30.2c0-.105.026-.211.026-.264v-.185a1.506,1.506,0,0,0-.237-.9.816.816,0,0,0-.685-.316,1.241,1.241,0,0,0-.923.448,2.888,2.888,0,0,0-.554,1.213Zm-.079.422c0,.105-.026.211-.026.316v.316a1.481,1.481,0,0,0,.343,1.081,1.218,1.218,0,0,0,.975.369,1.56,1.56,0,0,0,.764-.185,3.441,3.441,0,0,0,.764-.58l.132.105c-.053.105-.079.211-.132.316a1.305,1.305,0,0,0-.105.343,3.162,3.162,0,0,1-.791.4,2.761,2.761,0,0,1-.791.132,2.007,2.007,0,0,1-1.529-.58,2.219,2.219,0,0,1-.58-1.555,3.075,3.075,0,0,1,.738-2.109,2.407,2.407,0,0,1,1.872-.844,1.667,1.667,0,0,1,1.292.527,2.044,2.044,0,0,1,.475,1.45v.185c0,.105-.026.211-.026.343H30.89c-.738-.026-1.265-.026-1.555-.026H28.7c-.369-.026-.685,0-.949,0Zm3.374,2.452c.237-.923.422-1.819.58-2.636A21.031,21.031,0,0,0,32,21.468a.73.73,0,0,0,.237.026h.4c.079,0,.158-.026.237-.026-.053.158-.079.29-.132.448-.026.158-.053.316-.079.5a2.621,2.621,0,0,1,.712-.791,1.244,1.244,0,0,1,.712-.29h.132c.053,0,.079.026.132.026a2.468,2.468,0,0,0-.105.422c-.026.132-.026.29-.053.422a1.517,1.517,0,0,0-.264-.053c-.079,0-.132-.026-.185-.026q-.672,0-1.028.87a14.257,14.257,0,0,0-.633,3.243,1.182,1.182,0,0,0-.29-.026c-.079,0-.158-.026-.211-.026h-.158c-.053.079-.158.079-.29.105Zm6.511-.264a2.7,2.7,0,0,1-.712.29,2.437,2.437,0,0,1-.764.105,2.047,2.047,0,0,1-1.529-.58,2.068,2.068,0,0,1-.58-1.555,3.028,3.028,0,0,1,.764-2.083,2.532,2.532,0,0,1,1.951-.844,3.305,3.305,0,0,1,1.634.4,2.041,2.041,0,0,0-.185.422,2.468,2.468,0,0,0-.105.422h-.158a1.439,1.439,0,0,0-.475-.633,1.015,1.015,0,0,0-.685-.211,1.6,1.6,0,0,0-1.318.764,3,3,0,0,0-.527,1.845,1.816,1.816,0,0,0,.343,1.186,1.251,1.251,0,0,0,.975.422,1.766,1.766,0,0,0,.817-.185,1.974,1.974,0,0,0,.633-.5l.132.105a1.613,1.613,0,0,0-.132.316,2.735,2.735,0,0,0-.079.316Zm3.032-.4a2.676,2.676,0,0,1-.685.58,1.56,1.56,0,0,1-.764.185,1.24,1.24,0,0,1-.9-.316,1.191,1.191,0,0,1-.343-.87,1.41,1.41,0,0,1,.448-1.081,3.5,3.5,0,0,1,1.582-.606l.817-.158a.427.427,0,0,0,.29-.237,1.77,1.77,0,0,0,.079-.606.737.737,0,0,0-.817-.817,1.61,1.61,0,0,0-.791.211,1.4,1.4,0,0,0-.527.58l-.185-.026a1.121,1.121,0,0,0,.053-.29c0-.079.026-.185.026-.264v-.158a2.023,2.023,0,0,1,.738-.316,2.5,2.5,0,0,1,.791-.105,1.681,1.681,0,0,1,1.107.316,1.123,1.123,0,0,1,.4.923,2.566,2.566,0,0,1-.026.422q-.04.237-.079.554l-.343,1.714a.655.655,0,0,0-.026.211v.185a.259.259,0,0,0,.079.211.3.3,0,0,0,.211.079.287.287,0,0,0,.132-.026.671.671,0,0,0,.185-.053l.132.264a3.432,3.432,0,0,1-.448.211,1.161,1.161,0,0,1-.422.053.656.656,0,0,1-.5-.185,1.028,1.028,0,0,1-.211-.58Zm.316-1.9-.817.185a2.346,2.346,0,0,0-1.028.448.957.957,0,0,0-.316.738.827.827,0,0,0,.185.554.675.675,0,0,0,.5.211,1.162,1.162,0,0,0,.791-.316,1.312,1.312,0,0,0,.448-.712l.237-1.107Zm1.371,2.557c.237-.923.422-1.819.58-2.636a21.032,21.032,0,0,0,.29-2.188.73.73,0,0,0,.237.026h.4c.079,0,.158-.026.237-.026-.053.158-.079.29-.132.448-.026.158-.053.316-.079.5a2.621,2.621,0,0,1,.712-.791,1.244,1.244,0,0,1,.712-.29h.132c.053,0,.079.026.132.026a2.468,2.468,0,0,0-.105.422c-.026.132-.026.29-.053.422a1.517,1.517,0,0,0-.264-.053c-.079,0-.132-.026-.185-.026q-.672,0-1.028.87a14.257,14.257,0,0,0-.633,3.243,1.182,1.182,0,0,0-.29-.026c-.079,0-.158-.026-.211-.026h-.158c-.026.079-.132.079-.29.105Zm6.406-.712a2.856,2.856,0,0,1-.817.633,2.062,2.062,0,0,1-.923.185,1.566,1.566,0,0,1-1.239-.554,2.207,2.207,0,0,1-.475-1.476,3.166,3.166,0,0,1,.738-2.162,2.334,2.334,0,0,1,1.845-.87,1.517,1.517,0,0,1,.9.29,1.484,1.484,0,0,1,.554.764l.237-1.107c.105-.5.185-.949.264-1.371s.132-.791.185-1.186c.132.026.211.026.29.053h.158a.908.908,0,0,0,.237-.026A1.36,1.36,0,0,0,51,18.7c-.343,1.213-.633,2.478-.9,3.743s-.475,2.531-.659,3.822c-.079,0-.158-.026-.237-.026h-.4c-.079,0-.158.026-.264.026l.211-.685ZM48,21.916a1.393,1.393,0,0,0-1.239.764,3.254,3.254,0,0,0-.5,1.872,1.615,1.615,0,0,0,.264,1,.934.934,0,0,0,.791.343,1.5,1.5,0,0,0,1.292-.738,3.285,3.285,0,0,0,.5-1.9,1.617,1.617,0,0,0-.29-1A.953.953,0,0,0,48,21.916Z" transform="translate(-9.352 -13.77)"/>
    </g>
  </g>
</svg>
