<svg xmlns="http://www.w3.org/2000/svg" viewBox="0 0 44.57 34.6">
  <defs>
    <style>
      .cls-1 {
        fill: #ff5f00;
      }

      .cls-2 {
        fill: #eb001b;
      }

      .cls-3 {
        fill: #f79e1b;
      }
    </style>
  </defs>
  <g id="Group_8462" data-name="Group 8462" transform="translate(-4079 -13279)">
    <g id="Group_432" data-name="Group 432" transform="translate(4079 13279)">
      <path id="Path_896" data-name="Path 896" d="M18.839,173.725v-2.3a1.346,1.346,0,0,0-1.447-1.447,1.549,1.549,0,0,0-1.307.645,1.324,1.324,0,0,0-1.22-.645,1.222,1.222,0,0,0-1.063.54v-.453H13v3.66h.8V171.7c0-.645.349-.959.872-.959s.8.349.8.959v2.022h.8V171.7a.85.85,0,0,1,.872-.959c.54,0,.8.349.8.959v2.022Zm11.905-3.678H29.437v-1.116h-.8v1.116H27.9v.732h.732v1.691c0,.837.349,1.342,1.255,1.342a2.267,2.267,0,0,0,.994-.261l-.227-.7a1.247,1.247,0,0,1-.7.192c-.383,0-.54-.227-.54-.61V170.8h1.307v-.75Zm6.815-.07a1.078,1.078,0,0,0-.959.54v-.453h-.8v3.66h.8V171.65c0-.61.261-.959.767-.959a2.52,2.52,0,0,1,.505.07l.227-.767c-.157-.017-.383-.017-.54-.017Zm-10.3.383a2.7,2.7,0,0,0-1.5-.383c-.924,0-1.534.453-1.534,1.185,0,.61.453.959,1.255,1.063l.383.035c.418.07.645.192.645.383,0,.261-.314.453-.837.453a2.11,2.11,0,0,1-1.22-.383l-.383.61a2.639,2.639,0,0,0,1.569.453c1.063,0,1.691-.505,1.691-1.185,0-.645-.505-.994-1.255-1.116l-.383-.035c-.349-.035-.61-.122-.61-.349,0-.261.261-.418.7-.418a2.67,2.67,0,0,1,1.15.314l.331-.628Zm21.353-.383a1.078,1.078,0,0,0-.959.54v-.453h-.8v3.66h.8V171.65c0-.61.261-.959.767-.959a2.52,2.52,0,0,1,.505.07l.227-.767c-.157-.017-.383-.017-.54-.017Zm-10.249,1.917a1.839,1.839,0,0,0,1.952,1.917,1.963,1.963,0,0,0,1.307-.418l-.383-.645a1.583,1.583,0,0,1-.959.349,1.09,1.09,0,0,1-1.116-1.185,1.119,1.119,0,0,1,1.116-1.185,1.583,1.583,0,0,1,.959.349l.383-.645a1.875,1.875,0,0,0-1.307-.418,1.794,1.794,0,0,0-1.952,1.883Zm7.425,0v-1.83h-.8v.453a1.361,1.361,0,0,0-1.15-.54,1.919,1.919,0,0,0,0,3.835,1.277,1.277,0,0,0,1.15-.54v.453h.8Zm-2.946,0a1.118,1.118,0,1,1,2.231,0,1.118,1.118,0,1,1-2.231,0Zm-9.6-1.917a1.919,1.919,0,0,0,.052,3.835,2.362,2.362,0,0,0,1.5-.505l-.383-.575a1.887,1.887,0,0,1-1.063.383,1.035,1.035,0,0,1-1.116-.872h2.719v-.314a1.722,1.722,0,0,0-1.708-1.952Zm0,.68a.9.9,0,0,1,.924.872H32.243a.962.962,0,0,1,.994-.872Zm19.941,1.238V168.6h-.8v1.917a1.361,1.361,0,0,0-1.15-.54,1.919,1.919,0,0,0,0,3.835,1.277,1.277,0,0,0,1.15-.54v.453h.8Zm-2.963,0a1.118,1.118,0,1,1,2.231,0,1.118,1.118,0,1,1-2.231,0Zm-26.861,0v-1.83h-.8v.453a1.361,1.361,0,0,0-1.15-.54,1.919,1.919,0,0,0,0,3.835,1.277,1.277,0,0,0,1.15-.54v.453h.8Zm-2.981,0a1.118,1.118,0,1,1,2.231,0,1.118,1.118,0,1,1-2.231,0Z" transform="translate(-10.734 -139.212)"/>
      <rect id="Rectangle_469" data-name="Rectangle 469" class="cls-1" width="12.062" height="21.666" transform="translate(16.263 2.946)"/>
      <path id="Path_897" data-name="Path 897" class="cls-2" d="M17.03,13.77A13.832,13.832,0,0,1,22.276,2.946a13.777,13.777,0,1,0-.017,21.649A13.713,13.713,0,0,1,17.03,13.77Z" transform="translate(0 0)"/>
      <path id="Path_898" data-name="Path 898" class="cls-3" d="M150.259,13.77A13.753,13.753,0,0,1,128,24.595a13.789,13.789,0,0,0,0-21.649A13.753,13.753,0,0,1,150.259,13.77Z" transform="translate(-105.689 0)"/>
    </g>
  </g>
</svg>
